<svg width="156" height="38" viewBox="0 0 156 38" fill="none" xmlns="http://www.w3.org/2000/svg">
<rect x="0.5" y="0.5" width="155" height="37" rx="3.5" fill="#C6DBBD"/>
<rect x="0.5" y="0.5" width="155" height="37" rx="3.5" stroke="black"/>
<path d="M26.26 24.662C25.336 24.662 24.46 24.542 23.632 24.302C22.816 24.05 22.15 23.714 21.634 23.294C21.358 23.09 21.22 22.802 21.22 22.43C21.22 22.178 21.292 21.962 21.436 21.782C21.592 21.59 21.772 21.494 21.976 21.494C22.192 21.494 22.438 21.578 22.714 21.746C23.23 22.118 23.77 22.388 24.334 22.556C24.898 22.724 25.522 22.808 26.206 22.808C27.082 22.808 27.754 22.658 28.222 22.358C28.69 22.046 28.924 21.596 28.924 21.008C28.924 20.552 28.702 20.204 28.258 19.964C27.826 19.712 27.1 19.472 26.08 19.244C25.024 19.016 24.166 18.752 23.506 18.452C22.846 18.152 22.348 17.768 22.012 17.3C21.676 16.832 21.508 16.238 21.508 15.518C21.508 14.774 21.718 14.108 22.138 13.52C22.558 12.932 23.14 12.476 23.884 12.152C24.64 11.816 25.486 11.648 26.422 11.648C28.138 11.648 29.536 12.104 30.616 13.016C30.772 13.148 30.88 13.28 30.94 13.412C31.012 13.532 31.048 13.688 31.048 13.88C31.048 14.132 30.97 14.354 30.814 14.546C30.67 14.726 30.496 14.816 30.292 14.816C30.172 14.816 30.058 14.798 29.95 14.762C29.854 14.726 29.722 14.66 29.554 14.564C29.062 14.204 28.582 13.94 28.114 13.772C27.658 13.592 27.094 13.502 26.422 13.502C25.606 13.502 24.958 13.67 24.478 14.006C24.01 14.33 23.776 14.786 23.776 15.374C23.776 15.866 23.986 16.244 24.406 16.508C24.826 16.772 25.54 17.018 26.548 17.246C27.616 17.486 28.48 17.756 29.14 18.056C29.812 18.344 30.322 18.716 30.67 19.172C31.03 19.628 31.21 20.198 31.21 20.882C31.21 21.626 31 22.286 30.58 22.862C30.172 23.426 29.59 23.87 28.834 24.194C28.09 24.506 27.232 24.662 26.26 24.662ZM37.5975 22.934C38.1975 22.97 38.4975 23.24 38.4975 23.744C38.4975 24.032 38.3775 24.254 38.1375 24.41C37.9095 24.554 37.5795 24.614 37.1475 24.59L36.6615 24.554C34.6455 24.41 33.6375 23.33 33.6375 21.314V17.39H32.7375C32.4135 17.39 32.1615 17.318 31.9815 17.174C31.8135 17.03 31.7295 16.82 31.7295 16.544C31.7295 16.268 31.8135 16.058 31.9815 15.914C32.1615 15.77 32.4135 15.698 32.7375 15.698H33.6375V14.042C33.6375 13.718 33.7395 13.46 33.9435 13.268C34.1475 13.076 34.4235 12.98 34.7715 12.98C35.1075 12.98 35.3775 13.076 35.5815 13.268C35.7855 13.46 35.8875 13.718 35.8875 14.042V15.698H37.4175C37.7415 15.698 37.9875 15.77 38.1555 15.914C38.3355 16.058 38.4255 16.268 38.4255 16.544C38.4255 16.82 38.3355 17.03 38.1555 17.174C37.9875 17.318 37.7415 17.39 37.4175 17.39H35.8875V21.476C35.8875 22.364 36.2955 22.838 37.1115 22.898L37.5975 22.934ZM43.486 15.482C44.71 15.482 45.616 15.788 46.204 16.4C46.804 17 47.104 17.918 47.104 19.154V23.546C47.104 23.87 47.008 24.128 46.816 24.32C46.624 24.5 46.36 24.59 46.024 24.59C45.712 24.59 45.454 24.494 45.25 24.302C45.058 24.11 44.962 23.858 44.962 23.546V23.15C44.758 23.618 44.434 23.984 43.99 24.248C43.558 24.512 43.054 24.644 42.478 24.644C41.89 24.644 41.356 24.524 40.876 24.284C40.396 24.044 40.018 23.714 39.742 23.294C39.466 22.874 39.328 22.406 39.328 21.89C39.328 21.242 39.49 20.732 39.814 20.36C40.15 19.988 40.69 19.718 41.434 19.55C42.178 19.382 43.204 19.298 44.512 19.298H44.962V18.884C44.962 18.296 44.836 17.87 44.584 17.606C44.332 17.33 43.924 17.192 43.36 17.192C43.012 17.192 42.658 17.246 42.298 17.354C41.938 17.45 41.512 17.594 41.02 17.786C40.708 17.942 40.48 18.02 40.336 18.02C40.12 18.02 39.94 17.942 39.796 17.786C39.664 17.63 39.598 17.426 39.598 17.174C39.598 16.97 39.646 16.796 39.742 16.652C39.85 16.496 40.024 16.352 40.264 16.22C40.684 15.992 41.182 15.812 41.758 15.68C42.346 15.548 42.922 15.482 43.486 15.482ZM42.928 23.024C43.528 23.024 44.014 22.826 44.386 22.43C44.77 22.022 44.962 21.5 44.962 20.864V20.486H44.638C43.834 20.486 43.21 20.522 42.766 20.594C42.322 20.666 42.004 20.792 41.812 20.972C41.62 21.152 41.524 21.398 41.524 21.71C41.524 22.094 41.656 22.412 41.92 22.664C42.196 22.904 42.532 23.024 42.928 23.024ZM54.3047 15.518C54.6167 15.494 54.8627 15.56 55.0427 15.716C55.2227 15.872 55.3127 16.106 55.3127 16.418C55.3127 16.742 55.2347 16.982 55.0787 17.138C54.9227 17.294 54.6407 17.396 54.2327 17.444L53.6927 17.498C52.9847 17.57 52.4627 17.81 52.1267 18.218C51.8027 18.626 51.6407 19.136 51.6407 19.748V23.528C51.6407 23.876 51.5327 24.146 51.3167 24.338C51.1007 24.518 50.8307 24.608 50.5067 24.608C50.1827 24.608 49.9127 24.518 49.6967 24.338C49.4927 24.146 49.3907 23.876 49.3907 23.528V16.562C49.3907 16.226 49.4927 15.968 49.6967 15.788C49.9127 15.608 50.1767 15.518 50.4887 15.518C50.8007 15.518 51.0527 15.608 51.2447 15.788C51.4367 15.956 51.5327 16.202 51.5327 16.526V17.246C51.7607 16.718 52.0967 16.31 52.5407 16.022C52.9967 15.734 53.5007 15.572 54.0527 15.536L54.3047 15.518ZM61.6619 22.934C62.2619 22.97 62.5619 23.24 62.5619 23.744C62.5619 24.032 62.4419 24.254 62.2019 24.41C61.9739 24.554 61.6439 24.614 61.2119 24.59L60.7259 24.554C58.7099 24.41 57.7019 23.33 57.7019 21.314V17.39H56.8019C56.4779 17.39 56.2259 17.318 56.0459 17.174C55.8779 17.03 55.7939 16.82 55.7939 16.544C55.7939 16.268 55.8779 16.058 56.0459 15.914C56.2259 15.77 56.4779 15.698 56.8019 15.698H57.7019V14.042C57.7019 13.718 57.8039 13.46 58.0079 13.268C58.2119 13.076 58.4879 12.98 58.8359 12.98C59.1719 12.98 59.4419 13.076 59.6459 13.268C59.8499 13.46 59.9519 13.718 59.9519 14.042V15.698H61.4819C61.8059 15.698 62.0519 15.77 62.2199 15.914C62.3999 16.058 62.4899 16.268 62.4899 16.544C62.4899 16.82 62.3999 17.03 62.2199 17.174C62.0519 17.318 61.8059 17.39 61.4819 17.39H59.9519V21.476C59.9519 22.364 60.3599 22.838 61.1759 22.898L61.6619 22.934ZM71.8072 24.644C70.4992 24.644 69.4432 24.386 68.6392 23.87C68.2552 23.642 68.0632 23.318 68.0632 22.898C68.0632 22.658 68.1292 22.466 68.2612 22.322C68.3932 22.166 68.5552 22.088 68.7472 22.088C68.9512 22.088 69.2332 22.184 69.5932 22.376C69.9772 22.556 70.3252 22.694 70.6372 22.79C70.9612 22.886 71.3692 22.934 71.8612 22.934C72.3652 22.934 72.7552 22.85 73.0312 22.682C73.3192 22.514 73.4632 22.28 73.4632 21.98C73.4632 21.776 73.4032 21.614 73.2832 21.494C73.1752 21.374 72.9712 21.266 72.6712 21.17C72.3832 21.062 71.9392 20.942 71.3392 20.81C70.2712 20.594 69.5032 20.288 69.0352 19.892C68.5792 19.496 68.3512 18.95 68.3512 18.254C68.3512 17.726 68.5072 17.252 68.8192 16.832C69.1312 16.4 69.5572 16.07 70.0972 15.842C70.6492 15.602 71.2732 15.482 71.9692 15.482C72.4732 15.482 72.9592 15.548 73.4272 15.68C73.8952 15.8 74.3152 15.98 74.6872 16.22C75.0712 16.46 75.2632 16.778 75.2632 17.174C75.2632 17.414 75.1972 17.618 75.0652 17.786C74.9332 17.942 74.7712 18.02 74.5792 18.02C74.4472 18.02 74.3152 17.996 74.1832 17.948C74.0632 17.888 73.9072 17.804 73.7152 17.696C73.3672 17.516 73.0672 17.384 72.8152 17.3C72.5632 17.204 72.2512 17.156 71.8792 17.156C71.4352 17.156 71.0812 17.246 70.8172 17.426C70.5652 17.606 70.4392 17.852 70.4392 18.164C70.4392 18.464 70.5712 18.692 70.8352 18.848C71.0992 19.004 71.6092 19.16 72.3652 19.316C73.1692 19.484 73.7992 19.676 74.2552 19.892C74.7112 20.108 75.0352 20.378 75.2272 20.702C75.4312 21.026 75.5332 21.44 75.5332 21.944C75.5332 22.76 75.1912 23.414 74.5072 23.906C73.8352 24.398 72.9352 24.644 71.8072 24.644ZM81.1735 15.482C82.3975 15.482 83.3035 15.788 83.8915 16.4C84.4915 17 84.7915 17.918 84.7915 19.154V23.546C84.7915 23.87 84.6955 24.128 84.5035 24.32C84.3115 24.5 84.0475 24.59 83.7115 24.59C83.3995 24.59 83.1415 24.494 82.9375 24.302C82.7455 24.11 82.6495 23.858 82.6495 23.546V23.15C82.4455 23.618 82.1215 23.984 81.6775 24.248C81.2455 24.512 80.7415 24.644 80.1655 24.644C79.5775 24.644 79.0435 24.524 78.5635 24.284C78.0835 24.044 77.7055 23.714 77.4295 23.294C77.1535 22.874 77.0155 22.406 77.0155 21.89C77.0155 21.242 77.1775 20.732 77.5015 20.36C77.8375 19.988 78.3775 19.718 79.1215 19.55C79.8655 19.382 80.8915 19.298 82.1995 19.298H82.6495V18.884C82.6495 18.296 82.5235 17.87 82.2715 17.606C82.0195 17.33 81.6115 17.192 81.0475 17.192C80.6995 17.192 80.3455 17.246 79.9855 17.354C79.6255 17.45 79.1995 17.594 78.7075 17.786C78.3955 17.942 78.1675 18.02 78.0235 18.02C77.8075 18.02 77.6275 17.942 77.4835 17.786C77.3515 17.63 77.2855 17.426 77.2855 17.174C77.2855 16.97 77.3335 16.796 77.4295 16.652C77.5375 16.496 77.7115 16.352 77.9515 16.22C78.3715 15.992 78.8695 15.812 79.4455 15.68C80.0335 15.548 80.6095 15.482 81.1735 15.482ZM80.6155 23.024C81.2155 23.024 81.7015 22.826 82.0735 22.43C82.4575 22.022 82.6495 21.5 82.6495 20.864V20.486H82.3255C81.5215 20.486 80.8975 20.522 80.4535 20.594C80.0095 20.666 79.6915 20.792 79.4995 20.972C79.3075 21.152 79.2115 21.398 79.2115 21.71C79.2115 22.094 79.3435 22.412 79.6075 22.664C79.8835 22.904 80.2195 23.024 80.6155 23.024ZM93.2162 16.166C93.3122 15.95 93.4382 15.788 93.5942 15.68C93.7622 15.572 93.9422 15.518 94.1342 15.518C94.4102 15.518 94.6562 15.614 94.8722 15.806C95.1002 15.986 95.2142 16.214 95.2142 16.49C95.2142 16.634 95.1782 16.778 95.1062 16.922L91.7762 23.888C91.6682 24.116 91.5122 24.29 91.3082 24.41C91.1162 24.53 90.9002 24.59 90.6602 24.59C90.4322 24.59 90.2102 24.53 89.9942 24.41C89.7902 24.29 89.6342 24.116 89.5262 23.888L86.1782 16.922C86.1182 16.802 86.0882 16.664 86.0882 16.508C86.0882 16.232 86.2022 15.998 86.4302 15.806C86.6702 15.614 86.9402 15.518 87.2402 15.518C87.6722 15.518 87.9902 15.728 88.1942 16.148L90.7142 21.71L93.2162 16.166ZM97.6688 24.608C97.3448 24.608 97.0748 24.518 96.8588 24.338C96.6548 24.146 96.5528 23.876 96.5528 23.528V16.58C96.5528 16.232 96.6548 15.968 96.8588 15.788C97.0748 15.608 97.3448 15.518 97.6688 15.518C97.9928 15.518 98.2628 15.608 98.4788 15.788C98.6948 15.968 98.8028 16.232 98.8028 16.58V23.528C98.8028 23.876 98.6948 24.146 98.4788 24.338C98.2628 24.518 97.9928 24.608 97.6688 24.608ZM97.6688 13.916C97.2608 13.916 96.9368 13.808 96.6968 13.592C96.4568 13.364 96.3368 13.07 96.3368 12.71C96.3368 12.35 96.4568 12.062 96.6968 11.846C96.9368 11.63 97.2608 11.522 97.6688 11.522C98.0648 11.522 98.3828 11.63 98.6228 11.846C98.8748 12.062 99.0008 12.35 99.0008 12.71C99.0008 13.07 98.8808 13.364 98.6408 13.592C98.4008 13.808 98.0768 13.916 97.6688 13.916ZM106.235 15.482C107.291 15.482 108.077 15.782 108.593 16.382C109.109 16.982 109.367 17.888 109.367 19.1V23.528C109.367 23.864 109.265 24.128 109.061 24.32C108.869 24.512 108.599 24.608 108.251 24.608C107.903 24.608 107.627 24.512 107.423 24.32C107.219 24.128 107.117 23.864 107.117 23.528V19.226C107.117 18.542 106.985 18.044 106.721 17.732C106.469 17.42 106.067 17.264 105.515 17.264C104.867 17.264 104.345 17.468 103.949 17.876C103.565 18.284 103.373 18.83 103.373 19.514V23.528C103.373 23.864 103.271 24.128 103.067 24.32C102.863 24.512 102.587 24.608 102.239 24.608C101.891 24.608 101.615 24.512 101.411 24.32C101.219 24.128 101.123 23.864 101.123 23.528V16.562C101.123 16.25 101.225 15.998 101.429 15.806C101.633 15.614 101.909 15.518 102.257 15.518C102.569 15.518 102.821 15.614 103.013 15.806C103.217 15.986 103.319 16.226 103.319 16.526V17.012C103.619 16.52 104.021 16.142 104.525 15.878C105.029 15.614 105.599 15.482 106.235 15.482ZM119.104 15.518C119.44 15.518 119.71 15.614 119.914 15.806C120.118 15.998 120.22 16.256 120.22 16.58V23.69C120.22 25.07 119.836 26.114 119.068 26.822C118.3 27.53 117.166 27.884 115.666 27.884C114.358 27.884 113.266 27.638 112.39 27.146C111.946 26.882 111.724 26.564 111.724 26.192C111.724 25.928 111.784 25.718 111.904 25.562C112.036 25.406 112.204 25.328 112.408 25.328C112.516 25.328 112.648 25.352 112.804 25.4C112.96 25.46 113.122 25.526 113.29 25.598C113.722 25.778 114.106 25.916 114.442 26.012C114.79 26.108 115.186 26.156 115.63 26.156C117.202 26.156 117.988 25.388 117.988 23.852V22.7C117.724 23.192 117.34 23.576 116.836 23.852C116.332 24.116 115.756 24.248 115.108 24.248C114.34 24.248 113.656 24.068 113.056 23.708C112.468 23.336 112.006 22.82 111.67 22.16C111.334 21.5 111.166 20.738 111.166 19.874C111.166 19.01 111.328 18.248 111.652 17.588C111.988 16.916 112.456 16.4 113.056 16.04C113.656 15.668 114.34 15.482 115.108 15.482C115.756 15.482 116.332 15.62 116.836 15.896C117.34 16.16 117.724 16.538 117.988 17.03V16.562C117.988 16.25 118.09 15.998 118.294 15.806C118.498 15.614 118.768 15.518 119.104 15.518ZM115.702 22.502C116.422 22.502 116.98 22.268 117.376 21.8C117.784 21.332 117.988 20.69 117.988 19.874C117.988 19.046 117.784 18.398 117.376 17.93C116.98 17.462 116.422 17.228 115.702 17.228C114.994 17.228 114.436 17.462 114.028 17.93C113.62 18.398 113.416 19.046 113.416 19.874C113.416 20.69 113.62 21.332 114.028 21.8C114.436 22.268 114.994 22.502 115.702 22.502Z" fill="black"/>
<path d="M134.97 25.0303C135.263 25.3232 135.737 25.3232 136.03 25.0303L140.803 20.2574C141.096 19.9645 141.096 19.4896 140.803 19.1967C140.51 18.9038 140.036 18.9038 139.743 19.1967L135.5 23.4393L131.257 19.1967C130.964 18.9038 130.49 18.9038 130.197 19.1967C129.904 19.4896 129.904 19.9645 130.197 20.2574L134.97 25.0303ZM134.75 13.5L134.75 24.5L136.25 24.5L136.25 13.5L134.75 13.5Z" fill="black"/>
</svg>
